<?xml version="1.0" standalone="no"?>
<!DOCTYPE svg PUBLIC "-//W3C//DTD SVG 20010904//EN"
 "http://www.w3.org/TR/2001/REC-SVG-20010904/DTD/svg10.dtd">
<svg version="1.0" xmlns="http://www.w3.org/2000/svg"
 width="1067.000000pt" height="1067.000000pt" viewBox="0 0 1067.000000 1067.000000"
 preserveAspectRatio="xMidYMid meet">
<metadata>
Created by potrace 1.14, written by Peter Selinger 2001-2017
</metadata>
<g transform="translate(0.000000,1067.000000) scale(0.100000,-0.100000)"
fill="#000000" stroke="none">
<path d="M5368 8525 c-2 -2 -32 -5 -68 -8 -94 -8 -132 -17 -510 -112 -84 -21
-221 -59 -254 -70 -22 -7 -75 -23 -116 -35 -41 -12 -78 -25 -82 -29 -4 -3 9
-20 29 -36 43 -34 93 -40 156 -18 23 8 51 17 62 19 11 2 29 8 40 13 11 5 43
17 70 27 28 10 55 21 60 25 30 22 86 20 171 -6 49 -15 95 -32 102 -37 6 -6 12
-7 12 -4 0 13 90 -54 100 -75 17 -31 20 -108 25 -809 4 -591 12 -1085 18
-1149 2 -28 -2 -25 157 -100 151 -70 170 -77 171 -59 2 19 -2 1003 -6 1565
l-3 482 51 50 c28 28 60 52 72 52 63 4 193 -4 257 -16 13 -3 50 -8 83 -11 33
-4 64 -9 68 -11 5 -3 28 -7 51 -9 41 -3 58 -6 111 -17 22 -5 126 -18 165 -21
14 -1 51 3 83 10 57 11 57 11 70 -15 11 -23 17 -26 61 -24 47 3 81 -11 71 -27
-7 -12 27 -21 69 -18 23 1 42 -4 56 -17 13 -12 33 -18 58 -17 29 2 42 -4 58
-23 11 -14 33 -28 48 -31 16 -3 45 -18 65 -33 20 -16 45 -32 56 -35 19 -5 20
-1 19 47 0 28 -2 57 -2 64 -2 12 -202 124 -342 190 -126 60 -444 185 -504 198
-11 3 -47 13 -80 24 -58 19 -127 38 -171 47 -182 39 -307 54 -492 59 -62 1
-114 1 -115 0z m225 -84 c19 -3 2 -26 -89 -124 l-44 -47 -68 5 c-37 4 -78 8
-92 11 -14 3 -42 7 -63 9 -20 2 -46 9 -57 15 -11 6 -20 8 -20 5 0 -3 -13 1
-30 10 -16 9 -30 19 -30 24 0 4 26 20 58 34 84 37 115 44 227 54 39 3 71 6 72
7 2 2 123 -1 136 -3z m292 -25 c77 -15 176 -48 264 -87 94 -42 231 -112 231
-118 0 -9 -38 -5 -130 14 -79 16 -105 21 -185 31 -27 3 -52 7 -55 9 -3 2 -33
6 -65 10 -33 4 -70 8 -81 10 -12 2 -64 9 -117 15 -113 15 -124 19 -106 49 8
11 17 21 20 21 4 0 22 14 40 31 32 30 36 31 99 25 36 -3 74 -8 85 -10z"/>
<path d="M4985 7726 c-33 -12 -66 -25 -72 -29 -7 -5 -13 -6 -13 -3 0 11 -161
-76 -236 -126 -215 -146 -384 -374 -465 -628 -39 -120 -44 -159 -43 -350 0
-177 6 -223 41 -335 84 -266 269 -513 488 -652 43 -27 412 -211 545 -271 25
-11 92 -42 150 -69 58 -27 143 -67 190 -88 47 -22 87 -42 90 -45 3 -3 30 -16
60 -30 30 -14 58 -29 62 -35 4 -5 8 -7 8 -3 0 10 136 -68 200 -115 71 -52 179
-163 223 -230 19 -28 34 -55 33 -58 0 -4 6 -15 15 -25 9 -11 27 -41 39 -69 90
-199 103 -260 102 -475 0 -167 -4 -200 -37 -315 -65 -222 -204 -414 -415 -572
-57 -42 -192 -113 -216 -113 -8 0 -14 -4 -14 -10 0 -5 -3 -9 -7 -8 -14 4 -88
-24 -95 -36 -13 -19 -9 -86 5 -92 20 -7 167 49 256 97 268 147 487 404 575
675 21 64 26 85 40 174 3 14 6 25 7 25 8 0 13 250 6 310 -19 152 -93 361 -176
490 -29 45 -25 39 -83 114 -70 90 -162 175 -255 235 -76 48 -642 329 -803 397
-30 12 -58 27 -61 32 -3 5 -8 8 -10 6 -8 -4 -365 173 -396 197 -17 13 -34 24
-37 24 -12 0 -165 146 -201 192 -96 121 -198 339 -211 453 -2 11 -7 40 -13 65
-11 46 -8 297 4 360 62 333 289 623 610 781 44 22 105 47 135 56 74 21 82 29
78 77 -4 50 -17 53 -103 22z"/>
<path d="M5587 7743 c-6 -9 0 -65 8 -89 2 -7 28 -20 57 -29 209 -69 423 -222
551 -395 91 -124 183 -357 193 -485 12 -175 0 -398 -25 -440 -3 -5 -6 -17 -8
-25 -1 -9 -10 -34 -19 -55 -10 -22 -18 -44 -20 -50 -1 -5 -16 -40 -33 -78 -17
-37 -31 -70 -31 -72 0 -2 -14 -35 -31 -72 -45 -98 -68 -168 -59 -182 9 -16 40
-21 61 -10 9 4 31 39 49 76 18 37 45 94 61 126 16 31 26 57 23 57 -4 0 -2 6 4
13 5 6 29 56 51 111 37 88 56 148 77 241 11 48 13 335 3 400 -21 134 -107 341
-201 485 -47 72 -195 225 -246 255 -17 11 -32 23 -32 27 0 4 -4 8 -10 8 -5 0
-26 12 -47 26 -75 51 -233 126 -303 143 -19 5 -42 12 -51 16 -10 3 -19 2 -22
-2z"/>
<path d="M5023 7530 c-106 -37 -277 -133 -329 -185 -6 -6 -25 -23 -41 -36
-110 -92 -260 -363 -288 -519 -13 -71 -13 -317 0 -379 7 -33 10 -61 7 -61 -3
0 -1 -5 6 -12 7 -7 12 -21 12 -33 0 -12 4 -25 8 -30 4 -6 14 -27 21 -48 35
-104 147 -264 248 -357 87 -80 162 -126 347 -215 303 -146 541 -255 556 -255
5 0 10 -4 10 -10 0 -5 5 -10 10 -10 6 0 85 -34 176 -75 210 -95 208 -95 228
-57 14 27 14 31 -2 45 -14 13 -196 109 -212 112 -5 1 -34 14 -260 123 -69 32
-147 70 -175 82 -27 12 -149 71 -270 130 -224 109 -294 154 -375 244 -25 27
-52 57 -60 66 -71 75 -148 245 -174 385 -17 89 -15 291 3 338 6 15 9 27 6 27
-9 0 45 142 80 206 93 173 260 324 448 404 56 24 79 39 83 54 5 23 2 72 -6 79
-3 3 -28 -4 -57 -13z"/>
<path d="M5589 7534 c-9 -61 -4 -104 13 -104 5 0 34 -11 64 -25 30 -14 57 -25
60 -25 3 0 40 -23 82 -51 178 -119 288 -262 355 -459 33 -96 41 -160 40 -290
-1 -117 -6 -162 -31 -235 -9 -27 -17 -55 -18 -61 -1 -6 -9 -28 -18 -48 -29
-65 -44 -100 -66 -151 -31 -73 -51 -117 -62 -142 -6 -12 -11 -39 -12 -60 -1
-33 2 -38 22 -41 45 -7 59 15 197 323 36 80 76 203 92 284 10 53 9 218 -3 294
-28 174 -107 346 -222 479 -49 58 -146 150 -187 178 -101 68 -303 157 -306
134z"/>
<path d="M5027 7320 c-20 -11 -37 -17 -37 -13 0 5 -4 4 -8 -2 -4 -5 -23 -19
-42 -29 -78 -42 -154 -109 -236 -208 -63 -75 -136 -251 -150 -361 -8 -56 -8
-199 -1 -238 49 -266 212 -479 454 -595 40 -19 77 -34 83 -34 5 0 10 -4 10
-10 0 -5 5 -10 11 -10 6 0 45 -16 87 -36 116 -55 236 -111 342 -159 52 -24
136 -62 185 -85 50 -23 110 -51 135 -61 25 -11 59 -26 75 -34 17 -8 52 -21 80
-30 47 -15 50 -15 62 2 8 10 12 24 11 33 -3 14 -260 148 -488 254 -90 42 -274
130 -440 209 -25 12 -56 28 -69 36 -13 9 -30 16 -38 17 -8 2 -23 10 -32 18
-10 9 -21 16 -26 16 -12 0 -127 80 -156 109 -42 43 -101 132 -135 206 -38 83
-55 162 -58 264 -2 68 1 96 18 180 24 111 80 204 187 311 49 50 94 90 99 90 5
0 15 6 22 14 8 7 32 23 54 34 54 28 66 44 62 88 -4 46 -13 50 -61 24z"/>
<path d="M5589 7337 c-5 -14 -7 -57 -3 -77 3 -19 24 -37 81 -70 89 -53 197
-154 239 -225 120 -200 142 -382 71 -586 -20 -58 -49 -135 -66 -170 -103 -227
-117 -273 -86 -285 24 -9 59 3 70 25 127 245 186 383 200 466 2 11 7 38 10 60
22 121 5 287 -41 401 -13 33 -24 66 -24 72 0 7 -4 12 -10 12 -5 0 -10 6 -10
13 0 6 -11 25 -25 41 -14 16 -25 32 -25 37 0 12 -160 168 -204 198 -56 38
-174 97 -177 88z"/>
<path d="M5039 7106 c-134 -78 -229 -199 -264 -336 -9 -36 -20 -72 -24 -80 -7
-17 -7 -161 2 -200 28 -138 66 -209 162 -305 76 -77 89 -86 255 -167 96 -47
200 -97 230 -111 30 -14 99 -46 153 -71 141 -66 171 -79 180 -78 4 1 7 -3 7
-8 0 -6 6 -10 14 -10 8 0 31 -9 53 -20 21 -11 65 -31 98 -45 33 -15 69 -30 80
-35 80 -35 122 -52 137 -55 17 -4 48 19 48 34 0 12 -40 61 -49 61 -5 0 -73 31
-152 69 -156 74 -255 121 -376 177 -235 108 -457 217 -464 227 -3 5 -8 8 -10
6 -13 -7 -97 49 -140 94 -42 43 -106 150 -116 191 -1 6 -7 31 -13 56 -13 50
-18 120 -10 120 3 0 6 18 7 41 3 92 69 210 174 310 63 60 69 69 69 107 0 22
-3 43 -7 45 -5 2 -24 -5 -44 -17z"/>
<path d="M5585 7074 c1 -53 3 -54 69 -115 55 -51 75 -78 113 -157 l47 -95 -1
-126 c0 -124 0 -127 -35 -196 -48 -96 -78 -162 -78 -174 0 -6 -4 -11 -10 -11
-5 0 -10 -6 -10 -13 0 -7 -10 -33 -21 -57 -12 -24 -22 -49 -23 -54 -1 -6 -5
-17 -9 -23 -11 -17 37 -65 57 -57 8 3 46 69 84 147 141 288 144 297 144 447 1
128 -18 209 -69 300 -33 58 -166 189 -219 217 l-41 21 2 -54z"/>
<path d="M4662 5448 c-32 -32 -6 -62 103 -114 33 -16 63 -33 66 -37 3 -5 9 -8
13 -8 3 0 53 -22 111 -49 96 -46 246 -117 370 -175 238 -112 472 -229 508
-253 53 -37 197 -181 197 -198 0 -7 4 -14 8 -16 22 -9 78 -110 123 -223 29
-74 43 -161 43 -280 0 -177 -29 -283 -128 -471 -27 -52 -128 -166 -196 -221
-36 -29 -110 -76 -165 -104 -55 -29 -105 -59 -111 -67 -15 -21 -5 -70 17 -77
26 -9 143 44 249 112 85 54 166 128 221 200 24 32 46 60 49 63 6 6 26 40 65
115 40 74 70 156 88 234 19 81 19 307 0 396 -8 39 -17 82 -20 98 -3 15 -9 30
-14 33 -5 3 -9 12 -9 20 0 15 -38 95 -79 168 -54 94 -156 208 -255 283 -51 38
-287 160 -511 263 -27 12 -92 42 -143 66 -51 24 -95 44 -97 44 -3 0 -46 20
-95 45 -50 24 -93 44 -95 45 -6 1 -74 30 -135 58 -145 66 -158 70 -178 50z"/>
<path d="M4590 5270 c-30 -30 -25 -43 33 -77 61 -38 403 -208 437 -218 22 -7
401 -189 535 -257 158 -80 227 -134 295 -233 30 -44 93 -165 86 -165 -3 0 1
-15 9 -34 36 -85 42 -234 16 -339 -49 -189 -159 -343 -321 -449 -65 -42 -80
-62 -80 -107 0 -39 22 -41 89 -7 95 49 190 133 270 239 41 55 109 179 115 212
2 11 9 32 15 47 37 97 32 281 -13 448 -5 19 -36 90 -47 110 -5 8 -12 22 -16
30 -16 38 -88 134 -134 179 -35 35 -79 71 -88 71 -5 0 -11 4 -13 9 -3 8 -286
150 -568 283 -52 25 -140 67 -195 93 -55 26 -122 58 -150 70 -27 12 -86 39
-130 60 -124 58 -123 57 -145 35z"/>
<path d="M4496 5079 c-8 -12 -12 -27 -9 -34 4 -12 258 -142 444 -229 102 -47
450 -216 587 -284 137 -69 170 -95 218 -173 53 -88 75 -153 81 -245 10 -141
-45 -276 -161 -398 -31 -32 -56 -64 -57 -72 -4 -47 -2 -58 12 -67 19 -12 35 0
130 93 55 55 131 162 127 180 -1 3 4 14 10 26 18 34 24 73 27 191 4 110 -10
233 -27 233 -4 0 -8 6 -8 13 0 26 -75 137 -130 193 -49 50 -82 70 -315 184
-143 70 -285 138 -315 153 -30 14 -108 50 -173 81 -65 31 -119 56 -121 56 -3
0 -37 15 -78 34 -97 45 -198 86 -214 86 -7 0 -20 -10 -28 -21z"/>
<path d="M4426 4918 c-34 -19 -258 -529 -241 -546 2 -3 0 -12 -4 -21 -8 -14
-16 -63 -27 -156 -5 -45 -5 -184 0 -235 16 -159 88 -357 187 -516 46 -73 178
-221 244 -273 37 -29 175 -121 175 -116 0 3 17 -5 38 -18 65 -40 202 -90 280
-103 l38 -6 -2 44 c-1 23 -2 46 -3 50 -1 7 -27 17 -66 24 -13 2 -37 9 -52 16
-16 6 -33 12 -39 13 -13 3 -115 54 -169 85 -73 41 -130 83 -177 130 -26 26
-49 46 -50 45 -2 -2 -31 32 -66 74 -62 74 -185 302 -196 361 -2 14 -5 25 -6
25 -4 0 -14 51 -24 130 -8 52 -8 300 -2 350 10 73 38 162 77 250 12 28 23 52
24 55 0 3 11 26 23 53 82 177 102 226 102 252 0 35 -31 51 -64 33z"/>
<path d="M4588 4827 c-8 -12 -28 -53 -45 -92 -17 -38 -45 -100 -62 -138 -17
-37 -31 -70 -31 -72 0 -2 -11 -28 -24 -57 -29 -65 -36 -86 -55 -163 -32 -129
-34 -272 -6 -410 19 -98 83 -255 135 -331 16 -25 30 -47 30 -49 0 -14 156
-177 206 -215 27 -21 112 -74 159 -98 61 -32 192 -75 209 -69 10 4 14 19 12
51 -1 25 -4 47 -7 49 -2 2 -26 11 -54 20 -61 19 -108 40 -160 72 -22 13 -47
27 -55 31 -46 24 -176 150 -226 220 -24 34 -44 65 -44 69 0 4 -9 20 -21 36
-11 16 -18 29 -14 29 3 0 -1 10 -9 23 -20 31 -50 131 -64 217 -8 50 -7 248 1
296 15 82 54 192 126 349 18 39 36 79 41 90 4 11 15 36 24 57 17 38 21 84 9
91 -5 2 -20 7 -34 11 -21 4 -30 1 -41 -17z"/>
<path d="M4776 4749 c-15 -12 -25 -24 -22 -26 3 -3 -6 -22 -19 -43 -13 -21
-27 -50 -31 -64 -3 -14 -9 -26 -13 -26 -4 0 -8 -6 -9 -12 0 -7 -23 -65 -51
-128 -74 -169 -82 -210 -77 -386 3 -119 8 -162 26 -214 57 -169 154 -299 304
-409 65 -48 201 -115 219 -108 12 4 14 30 8 84 0 7 -38 31 -82 54 -45 24 -92
53 -105 66 -13 13 -26 23 -30 23 -19 0 -128 131 -168 201 -60 109 -79 186 -79
329 0 130 20 210 92 363 68 145 107 244 106 271 0 10 -9 25 -21 32 -18 13 -24
12 -48 -7z"/>
<path d="M4929 4618 c-18 -35 -55 -110 -82 -168 -26 -58 -59 -128 -73 -157
-24 -50 -25 -60 -23 -207 l2 -155 45 -92 c36 -74 59 -107 117 -163 73 -72 176
-143 193 -132 5 3 8 25 7 48 -3 36 -9 48 -42 73 -114 88 -198 201 -218 295 -5
19 -9 85 -10 145 -1 87 2 117 16 145 52 104 152 328 164 368 11 37 -3 62 -34
62 -24 0 -33 -9 -62 -62z"/>
<path d="M5192 4583 c-8 -22 -8 -1678 1 -2043 6 -254 11 -327 24 -360 3 -8 7
-20 9 -27 9 -45 109 -183 132 -183 6 0 22 15 36 33 15 17 31 38 36 44 6 7 10
15 10 18 0 3 11 29 24 57 31 69 37 90 42 146 4 34 16 1142 14 1227 0 6 -2 53
-3 105 -2 52 0 102 4 111 5 9 5 19 2 23 -11 11 -10 206 2 206 6 0 7 3 0 8 -12
8 -14 312 -2 312 4 0 4 8 -1 18 -5 9 -7 51 -6 93 1 42 -1 80 -4 85 -4 6 -32
22 -62 36 -147 69 -234 108 -242 108 -5 0 -12 -8 -16 -17z"/>
</g>
</svg>
