<?xml version="1.0" standalone="no"?>
<!DOCTYPE svg PUBLIC "-//W3C//DTD SVG 20010904//EN"
 "http://www.w3.org/TR/2001/REC-SVG-20010904/DTD/svg10.dtd">
<svg version="1.0" xmlns="http://www.w3.org/2000/svg"
 width="700.000000pt" height="700.000000pt" viewBox="0 0 700.000000 700.000000"
 preserveAspectRatio="xMidYMid meet">
<metadata>
Created by potrace 1.14, written by Peter Selinger 2001-2017
</metadata>
<g transform="translate(0.000000,700.000000) scale(0.100000,-0.100000)"
fill="#000000" stroke="none">
<path d="M961 6985 c-336 -74 -609 -302 -789 -661 -63 -125 -114 -275 -144
-425 l-23 -114 0 -2285 0 -2285 23 -114 c109 -537 427 -933 859 -1068 l88 -28
2525 0 2525 0 89 28 c430 135 749 532 858 1068 l23 114 0 2285 0 2285 -23 113
c-109 538 -426 934 -858 1069 l-89 28 -2500 2 c-2103 1 -2510 -1 -2564 -12z
m2513 -1188 c41 -54 120 -227 412 -909 151 -354 276 -644 278 -645 2 -2 33 64
70 146 102 225 136 245 222 128 97 -132 331 -651 889 -1972 381 -902 485
-1174 485 -1265 0 -38 -1 -39 -47 -49 -61 -13 -275 -28 -573 -42 -367 -16
-2436 -23 -2990 -10 -666 16 -982 35 -1031 62 -43 23 -14 141 115 461 184 458
561 1315 730 1663 148 304 171 323 251 213 25 -35 51 -63 58 -63 13 0 77 142
429 955 429 989 572 1304 609 1338 33 32 64 28 93 -11z"/>
</g>
</svg>
